<svg version="1.1" id="Layer_1" xmlns="http://www.w3.org/2000/svg" xmlns:xlink="http://www.w3.org/1999/xlink" x="0px" y="0px"
	 width="100%" viewBox="0 0 335 243" enable-background="new 0 0 335 243" xml:space="preserve">
<path fill="#122128" opacity="1.000000" stroke="none" 
	d="
M236.000000,244.000000 
	C157.333359,244.000000 79.166710,244.000000 1.000052,244.000000 
	C1.000035,163.000046 1.000035,82.000092 1.000017,1.000107 
	C112.666588,1.000071 224.333176,1.000071 335.999817,1.000036 
	C335.999878,81.999893 335.999878,162.999786 335.999939,243.999847 
	C302.833344,244.000000 269.666656,244.000000 236.000000,244.000000 
M114.925186,204.070892 
	C114.925186,204.070892 114.844086,204.047806 114.645691,203.506866 
	C114.087402,202.737839 113.529106,201.968796 112.668800,200.562241 
	C112.484970,200.098602 112.425529,199.500992 112.095627,199.194717 
	C110.730232,197.927185 109.282997,196.747803 107.865845,195.536026 
	C107.255096,197.268280 106.197815,198.980194 106.117813,200.736618 
	C105.883499,205.881500 105.949318,211.046585 106.094322,216.198227 
	C106.138390,217.763977 106.821587,219.311752 107.212051,220.867752 
	C107.891647,220.848602 108.571243,220.829468 109.250839,220.810318 
	C109.627235,215.575104 110.003639,210.339890 110.482712,203.676605 
	C114.579666,209.384293 117.740097,213.787277 121.139160,218.678131 
	C121.477661,219.099869 121.816170,219.521622 122.463768,220.440292 
	C125.488144,221.990997 126.419548,220.340347 126.443626,217.696289 
	C126.501129,211.383698 126.527641,205.068314 126.378044,198.758530 
	C126.349487,197.554535 125.454819,196.371063 124.959755,195.178131 
	C124.264664,195.250015 123.569580,195.321899 122.874496,195.393799 
	C122.682091,198.815445 122.719429,202.271378 122.215675,205.646561 
	C121.885452,207.859146 120.772705,209.954941 119.614769,211.558853 
	C118.666496,210.030838 117.718224,208.502823 116.567131,206.447144 
	C116.017853,205.683090 115.468575,204.919052 114.925186,204.070892 
M151.210938,195.877304 
	C150.138321,195.924393 149.065720,195.971481 147.101974,195.954544 
	C144.852737,196.056793 142.603500,196.159027 139.952606,196.279526 
	C139.952606,202.634552 139.782700,208.448318 140.037964,214.243393 
	C140.137192,216.496002 141.143341,220.604385 141.826172,220.623306 
	C145.808197,220.733551 150.330154,223.208694 153.156479,218.841751 
	C143.943573,217.551987 142.967438,216.360016 145.254929,209.281067 
	C145.254929,209.281067 145.348541,209.370117 146.095734,209.575134 
	C148.468842,209.345276 150.841949,209.115433 153.215073,208.885574 
	C153.145081,208.247284 153.075104,207.609009 153.005112,206.970718 
	C150.260437,206.970718 147.515747,206.970718 144.292068,206.585098 
	C144.146912,206.440369 144.001770,206.295624 143.774490,205.232483 
	C144.262146,202.850464 144.749786,200.468460 145.922607,198.178162 
	C146.612137,198.151947 147.301666,198.125748 148.545517,198.289597 
	C149.703354,198.226120 150.861191,198.162628 152.682953,198.071701 
	C153.040512,197.616211 153.398071,197.160721 153.755630,196.705246 
	C153.172684,196.476089 152.589737,196.246933 151.210938,195.877304 
M31.324188,196.122833 
	C30.899679,196.175095 30.475170,196.227341 29.434305,196.629898 
	C29.182640,203.555344 28.836870,210.479935 28.772625,217.407120 
	C28.762009,218.551926 29.983591,219.708176 30.635735,220.859131 
	C31.289961,219.687988 32.395874,218.558640 32.508820,217.337433 
	C32.783886,214.363373 32.598415,211.346741 32.598415,208.347244 
	C33.251289,208.267212 33.904163,208.187180 34.557037,208.107147 
	C35.925861,211.389343 37.167953,214.733643 38.729614,217.921387 
	C39.306225,219.098419 40.625751,220.659012 41.624050,220.671829 
	C42.623482,220.684647 43.998188,219.162125 44.587605,217.998215 
	C46.097298,215.017059 47.262054,211.861206 48.564747,208.775223 
	C49.022720,208.875320 49.480694,208.975418 49.938667,209.075516 
	C50.537365,212.997299 51.136066,216.919083 51.734764,220.840881 
	C52.318184,220.781067 52.901604,220.721252 53.485023,220.661453 
	C53.485023,212.921143 53.485023,205.180847 53.485023,196.537415 
	C44.878872,199.016510 47.581791,209.300781 41.220314,213.353531 
	C38.798321,208.780685 36.436996,204.322357 33.949165,199.336044 
	C33.830715,199.199219 33.712261,199.062378 33.437660,198.378052 
	C32.944431,197.666916 32.451202,196.955765 31.324188,196.122833 
M204.722260,54.845020 
	C171.221558,32.260075 128.054260,46.348793 114.119278,84.336273 
	C113.436516,86.197525 111.658363,87.629448 110.591667,89.383751 
	C108.962425,92.063202 106.321442,94.794121 106.190521,97.600250 
	C105.678719,108.570290 105.890472,119.579987 106.070259,130.571060 
	C106.103493,132.602753 106.606964,135.556366 107.972717,136.468658 
	C112.761208,139.667252 112.294380,144.197678 112.240501,148.820602 
	C112.186157,153.484100 112.461067,158.163406 112.165367,162.808670 
	C111.879578,167.298248 113.390274,168.969223 118.069946,168.865814 
	C130.390488,168.593552 142.721252,168.756958 155.047791,168.795609 
	C160.909088,168.813980 167.426880,167.202469 170.496094,176.642380 
	C173.978119,166.952484 180.841736,168.823227 186.984528,168.798828 
	C199.310989,168.749878 211.638596,168.695816 223.963867,168.823822 
	C227.583298,168.861404 229.053986,167.628815 228.922012,163.893616 
	C228.704544,157.738098 228.948883,151.567673 228.838791,145.406372 
	C228.780029,142.116470 229.248489,139.587769 232.254669,137.242035 
	C234.069962,135.825562 234.960083,132.334793 235.039047,129.738739 
	C235.347855,119.586952 235.105469,109.419724 235.198425,99.259430 
	C235.239441,94.776237 234.221939,91.136879 229.831604,88.868568 
	C228.588928,88.226540 227.686325,86.405441 227.183167,84.935036 
	C223.004593,72.723671 215.762848,62.817764 204.722260,54.845020 
M202.033234,212.802185 
	C202.283188,211.511978 202.533157,210.221771 202.783112,208.931564 
	C203.217331,208.896713 203.651535,208.861862 204.085754,208.826996 
	C205.321884,211.639526 206.420029,214.525513 207.859375,217.229889 
	C208.469116,218.375534 209.731842,219.764374 210.816818,219.875015 
	C211.649292,219.959900 212.982376,218.372345 213.545822,217.253204 
	C215.255234,213.857849 216.698959,210.328720 218.246170,206.851685 
	C218.808762,206.978119 219.371353,207.104553 219.933945,207.230988 
	C219.933945,209.784729 219.655991,212.379211 220.022339,214.879288 
	C220.312805,216.861557 221.392822,218.728119 222.122269,220.646042 
	C222.780182,218.656265 223.876648,216.694626 224.006439,214.670990 
	C224.293518,210.195572 224.273758,205.678085 224.001984,201.200638 
	C223.898727,199.499695 222.759628,197.861633 222.092636,196.194901 
	C220.655914,197.521240 218.821777,198.614639 217.875839,200.228622 
	C216.466370,202.633591 215.773575,205.446869 214.605499,208.008759 
	C213.698975,209.997009 212.532135,211.866531 210.940598,214.777115 
	C209.499207,212.369492 208.517059,211.095261 207.920959,209.660629 
	C206.467209,206.161819 205.365891,202.506805 203.753845,199.088638 
	C203.167816,197.846085 201.535156,197.097137 200.380051,196.122971 
	C199.683105,197.261963 198.423004,198.381897 198.383728,199.543137 
	C198.181229,205.527786 198.215637,211.524872 198.359558,217.512985 
	C198.387268,218.665710 199.273087,219.797775 199.763046,220.939377 
	C200.336746,220.859634 200.910446,220.779907 201.484146,220.700165 
	C201.664749,218.353622 201.845367,216.007080 202.033234,212.802185 
M74.308708,196.568954 
	C73.250984,197.370789 72.065056,198.049637 71.157654,198.995651 
	C67.146095,203.177765 66.558228,210.703506 69.756485,215.736404 
	C72.707527,220.380219 78.578224,222.440994 84.309822,220.845016 
	C89.624916,219.365021 93.238159,213.934616 93.054710,207.702194 
	C92.774689,198.188522 84.739189,193.076675 74.308708,196.568954 
M299.994324,220.105545 
	C304.349884,221.663589 308.618835,221.876617 313.365021,219.881943 
	C310.387634,216.000778 303.190948,220.854294 303.233856,213.575256 
	C303.269226,207.577026 309.242615,211.241745 311.667633,208.308060 
	C308.900787,206.022537 302.627563,208.353348 303.263092,201.981979 
	C303.900848,195.587662 310.751617,200.558548 313.709137,195.341476 
	C309.524353,195.258194 306.200500,194.771820 303.053558,195.313431 
	C301.564819,195.569656 299.348816,197.749008 299.291534,199.132736 
	C299.011322,205.901932 299.347321,212.696640 299.994324,220.105545 
M242.389893,216.169083 
	C248.923553,212.478790 253.254166,216.809036 258.113403,220.826584 
	C255.938156,212.526138 253.426987,204.835785 249.993042,197.582321 
	C248.512894,194.455872 245.742676,195.763458 244.553253,198.705917 
	C242.559326,203.638580 240.722672,208.636307 238.897354,213.634964 
	C238.092773,215.838287 237.478256,218.110992 236.777435,220.352203 
	C237.380478,220.681732 237.983521,221.011246 238.586578,221.340775 
	C239.685471,219.839859 240.784363,218.338959 242.389893,216.169083 
M171.772949,207.022720 
	C172.572586,210.501587 173.298431,214.000076 174.214966,217.447861 
	C174.505432,218.540497 175.304703,219.497864 175.871140,220.517136 
	C176.557419,219.634918 177.925415,218.662933 177.822937,217.884598 
	C176.944061,211.209763 180.796249,206.204208 183.456680,200.750793 
	C184.220612,199.184891 184.559219,197.411469 185.092834,195.733200 
	C184.482010,195.431061 183.871170,195.128906 183.260330,194.826767 
	C180.961853,198.302887 178.663376,201.779007 176.332916,205.303467 
	C171.889816,203.002151 172.945938,196.219910 166.344391,196.096497 
	C168.034363,199.515121 169.724335,202.933746 171.772949,207.022720 
M279.730927,219.530426 
	C279.885376,215.387772 280.279602,211.236511 280.131226,207.104721 
	C279.960205,202.341736 280.081177,198.083893 286.233582,197.425278 
	C286.346466,197.413193 286.398743,196.835617 286.643097,195.883850 
	C280.951782,195.883850 275.445221,195.883850 268.546967,195.883850 
	C270.267700,197.276459 270.741821,197.993912 271.232971,198.005737 
	C275.822662,198.116364 276.479584,200.981812 276.342804,204.739487 
	C276.191467,208.895798 276.282074,213.063889 276.371857,217.224594 
	C276.411407,219.056488 276.375427,221.243835 279.730927,219.530426 
z"/>
<path fill="#6B838A" opacity="1.000000" stroke="none" 
	d="
M205.006500,55.059299 
	C215.762848,62.817764 223.004593,72.723671 227.183167,84.935036 
	C227.686325,86.405441 228.588928,88.226540 229.831604,88.868568 
	C234.221939,91.136879 235.239441,94.776237 235.198425,99.259430 
	C235.105469,109.419724 235.347855,119.586952 235.039047,129.738739 
	C234.960083,132.334793 234.069962,135.825562 232.254669,137.242035 
	C229.248489,139.587769 228.780029,142.116470 228.838791,145.406372 
	C228.948883,151.567673 228.704544,157.738098 228.922012,163.893616 
	C229.053986,167.628815 227.583298,168.861404 223.963867,168.823822 
	C211.638596,168.695816 199.310989,168.749878 186.984528,168.798828 
	C180.841736,168.823227 173.978119,166.952484 170.496094,176.642380 
	C167.426880,167.202469 160.909088,168.813980 155.047791,168.795609 
	C142.721252,168.756958 130.390488,168.593552 118.069946,168.865814 
	C113.390274,168.969223 111.879578,167.298248 112.165367,162.808670 
	C112.461067,158.163406 112.186157,153.484100 112.240501,148.820602 
	C112.294380,144.197678 112.761208,139.667252 107.972717,136.468658 
	C106.606964,135.556366 106.103493,132.602753 106.070259,130.571060 
	C105.890472,119.579987 105.678719,108.570290 106.190521,97.600250 
	C106.321442,94.794121 108.962425,92.063202 110.591667,89.383751 
	C111.658363,87.629448 113.436516,86.197525 114.119278,84.336273 
	C128.054260,46.348793 171.221558,32.260075 205.006500,55.059299 
M184.266113,134.248795 
	C188.477768,134.883453 191.150772,133.229492 192.736694,129.187637 
	C195.043121,123.309464 197.980103,117.666328 200.065887,111.718758 
	C201.248535,108.346519 201.694061,104.569534 201.717896,100.969849 
	C201.758301,94.868027 200.746048,94.077209 194.772125,94.066673 
	C179.289597,94.039375 163.806976,94.045761 148.324402,94.051613 
	C139.975937,94.054764 138.515366,95.535576 139.359818,103.995277 
	C139.686798,107.271164 140.455734,110.603668 141.641998,113.671120 
	C143.799179,119.249100 146.518906,124.606819 148.807983,130.137527 
	C150.170776,133.430222 152.463928,134.360168 155.854202,134.300201 
	C165.007660,134.138306 174.165924,134.248840 184.266113,134.248795 
M136.839706,115.634682 
	C136.019608,109.942963 134.723923,104.264999 134.558777,98.554337 
	C134.460571,95.158676 133.579437,94.051949 130.442444,94.096855 
	C125.791031,94.163429 121.136711,94.185539 116.486053,94.098083 
	C112.711998,94.027122 111.080551,95.706314 111.120705,99.510345 
	C111.224167,109.312729 111.231995,119.117798 111.120102,128.919983 
	C111.075417,132.834641 112.935493,134.238861 116.602325,134.205887 
	C124.411110,134.135651 132.221298,134.220871 140.030060,134.150177 
	C141.247116,134.139160 142.459793,133.642380 144.240479,133.243393 
	C141.719955,127.289169 139.410126,121.832718 136.839706,115.634682 
M229.924026,112.502785 
	C229.908920,108.004967 229.853287,103.506798 229.892075,99.009445 
	C229.920776,95.683212 228.349091,94.102715 225.034622,94.126472 
	C220.204254,94.161110 215.373505,94.143188 210.542923,94.149239 
	C207.920303,94.152519 206.420395,95.200394 206.791519,98.086578 
	C208.068756,108.019966 204.132904,116.700760 200.220428,125.391342 
	C199.092453,127.896873 198.058655,130.444794 196.553497,133.978546 
	C207.359314,133.978546 217.102295,134.116180 226.829025,133.781723 
	C227.890015,133.745239 229.618011,131.042831 229.729889,129.483200 
	C230.110443,124.178497 229.905396,118.831787 229.924026,112.502785 
M177.552979,55.835079 
	C195.150894,58.864201 207.706161,68.525269 215.005295,84.775406 
	C216.766998,88.697487 218.988678,89.644539 222.684494,88.001854 
	C221.727066,67.767296 194.272659,47.595314 168.912827,48.320229 
	C144.882538,49.007137 118.241882,70.014557 118.526596,88.129799 
	C122.321953,89.643745 124.440842,88.478271 126.197166,84.600273 
	C135.499954,64.059494 154.669342,53.228764 177.552979,55.835079 
M203.334412,74.176453 
	C189.393906,59.894390 170.873367,55.526222 153.524155,62.918598 
	C142.146805,67.766403 133.786835,75.740921 129.489838,87.890602 
	C134.161758,89.407814 136.700668,88.803009 139.007767,84.928635 
	C153.573929,60.467178 187.294357,60.535603 202.012405,85.039597 
	C204.472305,89.135063 207.122437,89.478630 212.064682,87.413422 
	C209.136505,82.903122 206.473953,78.801971 203.334412,74.176453 
M180.729370,73.472054 
	C165.258926,68.953102 148.125626,75.572227 144.125793,88.143356 
	C161.756897,88.143356 179.197586,88.143356 196.782761,88.143356 
	C195.085739,81.988136 190.214218,77.532814 180.729370,73.472054 
M204.474823,157.744965 
	C198.660812,157.747589 192.835907,157.970169 187.036301,157.682327 
	C182.507339,157.457535 180.394836,159.627518 179.352951,163.665863 
	C179.892044,163.988083 180.305099,164.449905 180.720764,164.452255 
	C194.337418,164.529495 207.955093,164.629410 221.569550,164.467148 
	C222.587418,164.455017 224.401779,162.558380 224.452362,161.472870 
	C224.738037,155.340256 224.713409,149.184799 224.553665,143.043396 
	C224.475357,140.033096 220.460220,138.117264 218.577469,140.253586 
	C217.477463,141.501770 217.371384,143.884872 217.333328,145.767807 
	C217.091797,157.723312 217.139175,157.724274 204.474823,157.744965 
M171.493454,139.664474 
	C166.159393,139.664474 160.825317,139.664474 155.491257,139.664474 
	C155.261337,140.230682 155.031433,140.796890 154.801514,141.363098 
	C159.780701,149.404602 164.759888,157.446106 170.565659,166.822556 
	C176.390335,157.360397 181.392181,149.234924 186.394028,141.109451 
	C186.023239,140.627686 185.652435,140.145905 185.281647,139.664139 
	C181.016327,139.664139 176.751007,139.664139 171.493454,139.664474 
M132.604523,157.760651 
	C131.606705,157.759064 130.592499,157.639725 129.613831,157.775879 
	C124.873291,158.435272 123.416481,156.188278 123.839005,151.761093 
	C124.106255,148.960846 124.239929,146.036972 123.695290,143.316330 
	C123.418213,141.932312 121.510368,140.874771 120.339699,139.669647 
	C119.128998,140.851028 116.949883,141.972427 116.872353,143.223999 
	C116.502937,149.187454 116.527794,155.195892 116.851852,161.164474 
	C116.917114,162.366302 118.873573,164.444183 119.983810,164.461411 
	C133.282181,164.667801 146.585464,164.570496 159.887238,164.506577 
	C160.477264,164.503754 161.065186,164.059769 161.723938,163.792984 
	C160.833084,159.398834 158.486435,157.532043 154.032196,157.698730 
	C147.223404,157.953537 140.397934,157.762451 132.604523,157.760651 
M128.182480,151.160782 
	C128.642410,151.792816 129.095093,152.969727 129.563370,152.975952 
	C137.922684,153.087402 146.283905,153.056885 154.832535,153.056885 
	C151.207108,141.323669 148.994858,139.526688 138.172562,139.626999 
	C126.740631,139.732971 128.128067,138.055679 128.182480,151.160782 
M209.247894,139.639389 
	C205.094070,139.633728 200.933380,139.489731 196.790039,139.695312 
	C195.282379,139.770126 193.195892,140.235291 192.444733,141.287277 
	C189.985367,144.731522 188.018661,148.527588 185.124329,153.441818 
	C193.521103,153.441818 200.580597,153.598373 207.624146,153.332382 
	C209.397720,153.265396 212.691254,151.620270 212.614273,151.083771 
	C212.066238,147.264130 215.813950,142.367233 209.247894,139.639389 
z"/>
<path fill="#687F86" opacity="1.000000" stroke="none" 
	d="
M202.029602,213.231354 
	C201.845367,216.007080 201.664749,218.353622 201.484146,220.700165 
	C200.910446,220.779907 200.336746,220.859634 199.763046,220.939377 
	C199.273087,219.797775 198.387268,218.665710 198.359558,217.512985 
	C198.215637,211.524872 198.181229,205.527786 198.383728,199.543137 
	C198.423004,198.381897 199.683105,197.261963 200.380051,196.122971 
	C201.535156,197.097137 203.167816,197.846085 203.753845,199.088638 
	C205.365891,202.506805 206.467209,206.161819 207.920959,209.660629 
	C208.517059,211.095261 209.499207,212.369492 210.940598,214.777115 
	C212.532135,211.866531 213.698975,209.997009 214.605499,208.008759 
	C215.773575,205.446869 216.466370,202.633591 217.875839,200.228622 
	C218.821777,198.614639 220.655914,197.521240 222.092636,196.194901 
	C222.759628,197.861633 223.898727,199.499695 224.001984,201.200638 
	C224.273758,205.678085 224.293518,210.195572 224.006439,214.670990 
	C223.876648,216.694626 222.780182,218.656265 222.122269,220.646042 
	C221.392822,218.728119 220.312805,216.861557 220.022339,214.879288 
	C219.655991,212.379211 219.933945,209.784729 219.933945,207.230988 
	C219.371353,207.104553 218.808762,206.978119 218.246170,206.851685 
	C216.698959,210.328720 215.255234,213.857849 213.545822,217.253204 
	C212.982376,218.372345 211.649292,219.959900 210.816818,219.875015 
	C209.731842,219.764374 208.469116,218.375534 207.859375,217.229889 
	C206.420029,214.525513 205.321884,211.639526 204.085754,208.826996 
	C203.651535,208.861862 203.217331,208.896713 202.783112,208.931564 
	C202.533157,210.221771 202.283188,211.511978 202.029602,213.231354 
z"/>
<path fill="#5D747B" opacity="1.000000" stroke="none" 
	d="
M34.075672,199.864044 
	C36.436996,204.322357 38.798321,208.780685 41.220314,213.353531 
	C47.581791,209.300781 44.878872,199.016510 53.485023,196.537415 
	C53.485023,205.180847 53.485023,212.921143 53.485023,220.661453 
	C52.901604,220.721252 52.318184,220.781067 51.734764,220.840881 
	C51.136066,216.919083 50.537365,212.997299 49.938667,209.075516 
	C49.480694,208.975418 49.022720,208.875320 48.564747,208.775223 
	C47.262054,211.861206 46.097298,215.017059 44.587605,217.998215 
	C43.998188,219.162125 42.623482,220.684647 41.624050,220.671829 
	C40.625751,220.659012 39.306225,219.098419 38.729614,217.921387 
	C37.167953,214.733643 35.925861,211.389343 34.557037,208.107147 
	C33.904163,208.187180 33.251289,208.267212 32.598415,208.347244 
	C32.598415,211.346741 32.783886,214.363373 32.508820,217.337433 
	C32.395874,218.558640 31.289961,219.687988 30.635733,220.859131 
	C29.983591,219.708176 28.762009,218.551926 28.772625,217.407120 
	C28.836870,210.479935 29.182640,203.555344 29.731045,196.905106 
	C30.027782,203.744492 30.027782,210.308685 30.027782,215.685394 
	C31.220568,211.023346 32.648121,205.443695 34.075672,199.864044 
z"/>
<path fill="#627980" opacity="1.000000" stroke="none" 
	d="
M74.655281,196.393341 
	C84.739189,193.076675 92.774689,198.188522 93.054710,207.702194 
	C93.238159,213.934616 89.624916,219.365021 84.309822,220.845016 
	C78.578224,222.440994 72.707527,220.380219 69.756485,215.736404 
	C66.558228,210.703506 67.146095,203.177765 71.157654,198.995651 
	C72.065056,198.049637 73.250984,197.370789 74.655281,196.393341 
M84.063629,199.306564 
	C79.811722,197.588730 76.051971,198.422546 73.452812,202.146286 
	C70.866554,205.851547 70.839874,210.024063 73.166832,213.927505 
	C75.184120,217.311478 78.734230,218.963531 82.136513,217.507034 
	C84.818077,216.359085 87.634796,213.637070 88.664162,210.951965 
	C90.304253,206.673752 88.952019,202.410645 84.063629,199.306564 
z"/>
<path fill="#5D747B" opacity="1.000000" stroke="none" 
	d="
M299.729889,219.793945 
	C299.347321,212.696640 299.011322,205.901932 299.291534,199.132736 
	C299.348816,197.749008 301.564819,195.569656 303.053558,195.313431 
	C306.200500,194.771820 309.524353,195.258194 313.709137,195.341476 
	C310.751617,200.558548 303.900848,195.587662 303.263092,201.981979 
	C302.627563,208.353348 308.900787,206.022537 311.667633,208.308060 
	C309.242615,211.241745 303.269226,207.577026 303.233856,213.575256 
	C303.190948,220.854294 310.387634,216.000778 313.365021,219.881943 
	C308.618835,221.876617 304.349884,221.663589 299.729889,219.793945 
z"/>
<path fill="#627980" opacity="1.000000" stroke="none" 
	d="
M242.136566,216.503571 
	C240.784363,218.338959 239.685471,219.839859 238.586578,221.340775 
	C237.983521,221.011246 237.380478,220.681732 236.777435,220.352203 
	C237.478256,218.110992 238.092773,215.838287 238.897354,213.634964 
	C240.722672,208.636307 242.559326,203.638580 244.553253,198.705917 
	C245.742676,195.763458 248.512894,194.455872 249.993042,197.582321 
	C253.426987,204.835785 255.938156,212.526138 258.113403,220.826584 
	C253.254166,216.809036 248.923553,212.478790 242.136566,216.503571 
M247.419235,212.569122 
	C248.659866,212.050446 251.022125,211.283340 250.970642,211.050858 
	C250.332764,208.170959 249.343353,205.368912 248.444458,202.546799 
	C247.972458,202.574844 247.500458,202.602890 247.028442,202.630936 
	C246.214783,204.518280 245.353348,206.386826 244.600204,208.298019 
	C243.764282,210.419296 243.727692,212.232269 247.419235,212.569122 
z"/>
<path fill="#627980" opacity="1.000000" stroke="none" 
	d="
M171.593628,206.687531 
	C169.724335,202.933746 168.034363,199.515121 166.344391,196.096497 
	C172.945938,196.219910 171.889816,203.002151 176.332916,205.303467 
	C178.663376,201.779007 180.961853,198.302887 183.260330,194.826767 
	C183.871170,195.128906 184.482010,195.431061 185.092834,195.733200 
	C184.559219,197.411469 184.220612,199.184891 183.456680,200.750793 
	C180.796249,206.204208 176.944061,211.209763 177.822937,217.884598 
	C177.925415,218.662933 176.557419,219.634918 175.871140,220.517136 
	C175.304703,219.497864 174.505432,218.540497 174.214966,217.447861 
	C173.298431,214.000076 172.572586,210.501587 171.593628,206.687531 
z"/>
<path fill="#5D747B" opacity="1.000000" stroke="none" 
	d="
M279.552948,219.777008 
	C276.375427,221.243835 276.411407,219.056488 276.371857,217.224594 
	C276.282074,213.063889 276.191467,208.895798 276.342804,204.739487 
	C276.479584,200.981812 275.822662,198.116364 271.232971,198.005737 
	C270.741821,197.993912 270.267700,197.276459 268.546967,195.883850 
	C275.445221,195.883850 280.951782,195.883850 286.643097,195.883850 
	C286.398743,196.835617 286.346466,197.413193 286.233582,197.425278 
	C280.081177,198.083893 279.960205,202.341736 280.131226,207.104721 
	C280.279602,211.236511 279.885376,215.387772 279.552948,219.777008 
z"/>
<path fill="#627980" opacity="1.000000" stroke="none" 
	d="
M120.900528,218.190247 
	C117.740097,213.787277 114.579666,209.384293 110.482712,203.676605 
	C110.003639,210.339890 109.627235,215.575104 109.250839,220.810318 
	C108.571243,220.829468 107.891647,220.848602 107.212051,220.867752 
	C106.821587,219.311752 106.138390,217.763977 106.094322,216.198227 
	C105.949318,211.046585 105.883499,205.881500 106.117813,200.736618 
	C106.197815,198.980194 107.255096,197.268280 107.865845,195.536026 
	C109.282997,196.747803 110.730232,197.927185 112.095627,199.194717 
	C112.425529,199.500992 112.484970,200.098602 112.893539,201.160995 
	C113.693550,202.522430 114.268822,203.285126 114.844086,204.047806 
	C114.844086,204.047806 114.925186,204.070892 114.997284,204.391785 
	C115.636246,205.466736 116.203102,206.220764 116.769958,206.974808 
	C117.718224,208.502823 118.666496,210.030838 119.944893,212.081635 
	C120.859894,213.348328 121.444771,214.092255 121.916161,215.173294 
	C121.501968,216.403687 121.201248,217.296967 120.900528,218.190247 
z"/>
<path fill="#6B838A" opacity="1.000000" stroke="none" 
	d="
M153.776459,219.091949 
	C150.330154,223.208694 145.808197,220.733551 141.826172,220.623306 
	C141.143341,220.604385 140.137192,216.496002 140.037964,214.243393 
	C139.782700,208.448318 139.952606,202.634552 139.952606,196.279526 
	C142.603500,196.159027 144.852737,196.056793 147.572510,196.333038 
	C148.025757,197.174194 148.008469,197.636871 147.991196,198.099548 
	C147.301666,198.125748 146.612137,198.151947 145.228821,198.270447 
	C144.308899,200.958771 144.082748,203.554840 143.856613,206.150894 
	C144.001770,206.295624 144.146912,206.440369 144.622726,207.072861 
	C145.085114,208.163788 145.216827,208.766953 145.348541,209.370117 
	C145.348541,209.370117 145.254929,209.281067 144.984558,209.464706 
	C141.358414,215.829956 143.132523,219.178223 149.816071,219.236816 
	C151.135681,219.248398 152.456299,219.143265 153.776459,219.091949 
z"/>
<path fill="#556B72" opacity="1.000000" stroke="none" 
	d="
M122.029633,214.836182 
	C121.444771,214.092255 120.859894,213.348328 120.142715,212.353729 
	C120.772705,209.954941 121.885452,207.859146 122.215675,205.646561 
	C122.719429,202.271378 122.682091,198.815445 122.874496,195.393799 
	C123.569580,195.321899 124.264664,195.250015 124.959755,195.178131 
	C125.454819,196.371063 126.349487,197.554535 126.378044,198.758530 
	C126.527641,205.068314 126.501129,211.383698 126.443626,217.696289 
	C126.419548,220.340347 125.488144,221.990997 122.648331,220.054764 
	C127.683228,213.415268 124.037178,206.573822 124.583900,200.062897 
	C123.732483,204.987335 122.881058,209.911758 122.029633,214.836182 
z"/>
<path fill="#6B838A" opacity="1.000000" stroke="none" 
	d="
M34.012421,199.600037 
	C32.648121,205.443695 31.220568,211.023346 30.027782,215.685394 
	C30.027782,210.308685 30.027782,203.744492 30.039223,196.729950 
	C30.475170,196.227341 30.899679,196.175095 31.744011,196.431351 
	C32.640495,197.468430 33.117153,198.196976 33.593811,198.925537 
	C33.712261,199.062378 33.830715,199.199219 34.012421,199.600037 
z"/>
<path fill="#556B72" opacity="1.000000" stroke="none" 
	d="
M153.466461,218.966858 
	C152.456299,219.143265 151.135681,219.248398 149.816071,219.236816 
	C143.132523,219.178223 141.358414,215.829956 145.043030,209.492142 
	C142.967438,216.360016 143.943573,217.551987 153.466461,218.966858 
z"/>
<path fill="#6B838A" opacity="1.000000" stroke="none" 
	d="
M121.916153,215.173294 
	C122.881058,209.911758 123.732483,204.987335 124.583900,200.062897 
	C124.037178,206.573822 127.683228,213.415268 122.493774,219.806305 
	C121.816170,219.521622 121.477661,219.099869 121.019844,218.434189 
	C121.201248,217.296967 121.501968,216.403687 121.916153,215.173294 
z"/>
<path fill="#556B72" opacity="1.000000" stroke="none" 
	d="
M145.722137,209.472626 
	C145.216827,208.766953 145.085114,208.163788 144.862228,207.265671 
	C147.515747,206.970718 150.260437,206.970718 153.005112,206.970718 
	C153.075104,207.609009 153.145081,208.247284 153.215073,208.885574 
	C150.841949,209.115433 148.468842,209.345276 145.722137,209.472626 
z"/>
<path fill="#556B72" opacity="1.000000" stroke="none" 
	d="
M143.815552,205.691681 
	C144.082748,203.554840 144.308899,200.958771 144.886230,198.224579 
	C144.749786,200.468460 144.262146,202.850464 143.815552,205.691681 
z"/>
<path fill="#556B72" opacity="1.000000" stroke="none" 
	d="
M148.268356,198.194580 
	C148.008469,197.636871 148.025757,197.174194 148.018066,196.365051 
	C149.065720,195.971481 150.138321,195.924393 151.585510,196.294205 
	C151.979736,197.173782 151.999374,197.636475 152.019028,198.099152 
	C150.861191,198.162628 149.703354,198.226120 148.268356,198.194580 
z"/>
<path fill="#5D747B" opacity="1.000000" stroke="none" 
	d="
M33.515739,198.651794 
	C33.117153,198.196976 32.640495,197.468430 32.060902,196.492249 
	C32.451202,196.955765 32.944431,197.666916 33.515739,198.651794 
z"/>
<path fill="#556B72" opacity="1.000000" stroke="none" 
	d="
M114.744888,203.777344 
	C114.268822,203.285126 113.693550,202.522430 113.044548,201.479767 
	C113.529106,201.968796 114.087402,202.737839 114.744888,203.777344 
z"/>
<path fill="#556B72" opacity="1.000000" stroke="none" 
	d="
M116.668549,206.710968 
	C116.203102,206.220764 115.636246,205.466736 114.994347,204.433838 
	C115.468575,204.919052 116.017853,205.683090 116.668549,206.710968 
z"/>
<path fill="#6B838A" opacity="1.000000" stroke="none" 
	d="
M152.350983,198.085419 
	C151.999374,197.636475 151.979736,197.173782 151.983444,196.364441 
	C152.589737,196.246933 153.172684,196.476089 153.755646,196.705246 
	C153.398071,197.160721 153.040512,197.616211 152.350983,198.085419 
z"/>
<path fill="#16252C" opacity="1.000000" stroke="none" 
	d="
M183.794189,134.250031 
	C174.165924,134.248840 165.007660,134.138306 155.854202,134.300201 
	C152.463928,134.360168 150.170776,133.430222 148.807983,130.137527 
	C146.518906,124.606819 143.799179,119.249100 141.641998,113.671120 
	C140.455734,110.603668 139.686798,107.271164 139.359818,103.995277 
	C138.515366,95.535576 139.975937,94.054764 148.324402,94.051613 
	C163.806976,94.045761 179.289597,94.039375 194.772125,94.066673 
	C200.746048,94.077209 201.758301,94.868027 201.717896,100.969849 
	C201.694061,104.569534 201.248535,108.346519 200.065887,111.718758 
	C197.980103,117.666328 195.043121,123.309464 192.736694,129.187637 
	C191.150772,133.229492 188.477768,134.883453 183.794189,134.250031 
M166.797287,106.389816 
	C171.254593,102.105667 174.380539,109.484116 179.655014,107.948189 
	C176.202652,103.930603 173.313049,100.567902 170.741425,97.575249 
	C168.501526,99.565636 166.140640,101.165642 164.466232,103.303360 
	C163.035568,105.129890 161.487045,107.660065 161.683380,109.717468 
	C161.845444,111.415947 164.268738,113.227470 166.085831,114.345818 
	C167.868164,115.442772 170.291016,115.462334 172.166153,116.457222 
	C173.568649,117.201340 174.547546,118.743858 175.715073,119.930878 
	C174.136673,120.905296 172.533356,122.692764 170.986267,122.645348 
	C169.113251,122.587944 167.307526,120.936600 165.434601,120.056053 
	C164.244537,119.496559 162.985168,119.084465 161.756882,118.606262 
	C161.440308,119.088341 161.123734,119.570412 160.807144,120.052483 
	C164.069794,123.691544 167.332428,127.330597 170.483185,130.844879 
	C172.959778,128.644928 175.809692,126.434647 178.267624,123.851387 
	C181.589172,120.360458 180.672440,115.760574 176.264923,113.581985 
	C174.054642,112.489456 171.391891,112.256935 169.284210,111.032341 
	C167.956665,110.261017 167.277924,108.373039 166.797287,106.389816 
z"/>
<path fill="#213640" opacity="1.000000" stroke="none" 
	d="
M136.970001,116.005478 
	C139.410126,121.832718 141.719955,127.289169 144.240479,133.243393 
	C142.459793,133.642380 141.247116,134.139160 140.030060,134.150177 
	C132.221298,134.220871 124.411110,134.135651 116.602325,134.205887 
	C112.935493,134.238861 111.075417,132.834641 111.120102,128.919983 
	C111.231995,119.117798 111.224167,109.312729 111.120705,99.510345 
	C111.080551,95.706314 112.711998,94.027122 116.486053,94.098083 
	C121.136711,94.185539 125.791031,94.163429 130.442444,94.096855 
	C133.579437,94.051949 134.460571,95.158676 134.558777,98.554337 
	C134.723923,104.264999 136.019608,109.942963 136.970001,116.005478 
z"/>
<path fill="#213640" opacity="1.000000" stroke="none" 
	d="
M229.923981,113.001953 
	C229.905396,118.831787 230.110443,124.178497 229.729889,129.483200 
	C229.618011,131.042831 227.890015,133.745239 226.829025,133.781723 
	C217.102295,134.116180 207.359314,133.978546 196.553497,133.978546 
	C198.058655,130.444794 199.092453,127.896873 200.220428,125.391342 
	C204.132904,116.700760 208.068756,108.019966 206.791519,98.086578 
	C206.420395,95.200394 207.920303,94.152519 210.542923,94.149239 
	C215.373505,94.143188 220.204254,94.161110 225.034622,94.126472 
	C228.349091,94.102715 229.920776,95.683212 229.892075,99.009445 
	C229.853287,103.506798 229.908920,108.004967 229.923981,113.001953 
z"/>
<path fill="#1A2A31" opacity="1.000000" stroke="none" 
	d="
M177.120010,55.778656 
	C154.669342,53.228764 135.499954,64.059494 126.197166,84.600273 
	C124.440842,88.478271 122.321953,89.643745 118.526596,88.129799 
	C118.241882,70.014557 144.882538,49.007137 168.912827,48.320229 
	C194.272659,47.595314 221.727066,67.767296 222.684494,88.001854 
	C218.988678,89.644539 216.766998,88.697487 215.005295,84.775406 
	C207.706161,68.525269 195.150894,58.864201 177.120010,55.778656 
z"/>
<path fill="#1A2A31" opacity="1.000000" stroke="none" 
	d="
M203.572906,74.438629 
	C206.473953,78.801971 209.136505,82.903122 212.064682,87.413422 
	C207.122437,89.478630 204.472305,89.135063 202.012405,85.039597 
	C187.294357,60.535603 153.573929,60.467178 139.007767,84.928635 
	C136.700668,88.803009 134.161758,89.407814 129.489838,87.890602 
	C133.786835,75.740921 142.146805,67.766403 153.524155,62.918598 
	C170.873367,55.526222 189.393906,59.894390 203.572906,74.438629 
z"/>
<path fill="#243943" opacity="1.000000" stroke="none" 
	d="
M181.101440,73.612877 
	C190.214218,77.532814 195.085739,81.988136 196.782761,88.143356 
	C179.197586,88.143356 161.756897,88.143356 144.125793,88.143356 
	C148.125626,75.572227 165.258926,68.953102 181.101440,73.612877 
z"/>
<path fill="#1A2A31" opacity="1.000000" stroke="none" 
	d="
M204.968262,157.744171 
	C217.139175,157.724274 217.091797,157.723312 217.333328,145.767807 
	C217.371384,143.884872 217.477463,141.501770 218.577469,140.253586 
	C220.460220,138.117264 224.475357,140.033096 224.553665,143.043396 
	C224.713409,149.184799 224.738037,155.340256 224.452362,161.472870 
	C224.401779,162.558380 222.587418,164.455017 221.569550,164.467148 
	C207.955093,164.629410 194.337418,164.529495 180.720764,164.452255 
	C180.305099,164.449905 179.892044,163.988083 179.352951,163.665863 
	C180.394836,159.627518 182.507339,157.457535 187.036301,157.682327 
	C192.835907,157.970169 198.660812,157.747589 204.968262,157.744171 
z"/>
<path fill="#213640" opacity="1.000000" stroke="none" 
	d="
M171.989563,139.664307 
	C176.751007,139.664139 181.016327,139.664139 185.281647,139.664139 
	C185.652435,140.145905 186.023239,140.627686 186.394028,141.109451 
	C181.392181,149.234924 176.390335,157.360397 170.565659,166.822556 
	C164.759888,157.446106 159.780701,149.404602 154.801514,141.363098 
	C155.031433,140.796890 155.261337,140.230682 155.491257,139.664474 
	C160.825317,139.664474 166.159393,139.664474 171.989563,139.664307 
z"/>
<path fill="#19282F" opacity="1.000000" stroke="none" 
	d="
M133.092041,157.760666 
	C140.397934,157.762451 147.223404,157.953537 154.032196,157.698730 
	C158.486435,157.532043 160.833084,159.398834 161.723938,163.792984 
	C161.065186,164.059769 160.477264,164.503754 159.887238,164.506577 
	C146.585464,164.570496 133.282181,164.667801 119.983810,164.461411 
	C118.873573,164.444183 116.917114,162.366302 116.851852,161.164474 
	C116.527794,155.195892 116.502937,149.187454 116.872353,143.223999 
	C116.949883,141.972427 119.128998,140.851028 120.339699,139.669647 
	C121.510368,140.874771 123.418213,141.932312 123.695290,143.316330 
	C124.239929,146.036972 124.106255,148.960846 123.839005,151.761093 
	C123.416481,156.188278 124.873291,158.435272 129.613831,157.775879 
	C130.592499,157.639725 131.606705,157.759064 133.092041,157.760666 
z"/>
<path fill="#17262D" opacity="1.000000" stroke="none" 
	d="
M128.143555,150.695877 
	C128.128067,138.055679 126.740631,139.732971 138.172562,139.626999 
	C148.994858,139.526688 151.207108,141.323669 154.832535,153.056885 
	C146.283905,153.056885 137.922684,153.087402 129.563370,152.975952 
	C129.095093,152.969727 128.642410,151.792816 128.143555,150.695877 
z"/>
<path fill="#17262D" opacity="1.000000" stroke="none" 
	d="
M209.718933,139.670288 
	C215.813950,142.367233 212.066238,147.264130 212.614273,151.083771 
	C212.691254,151.620270 209.397720,153.265396 207.624146,153.332382 
	C200.580597,153.598373 193.521103,153.441818 185.124329,153.441818 
	C188.018661,148.527588 189.985367,144.731522 192.444733,141.287277 
	C193.195892,140.235291 195.282379,139.770126 196.790039,139.695312 
	C200.933380,139.489731 205.094070,139.633728 209.718933,139.670288 
z"/>
<path fill="#17262D" opacity="1.000000" stroke="none" 
	d="
M84.402710,199.473526 
	C88.952019,202.410645 90.304253,206.673752 88.664162,210.951965 
	C87.634796,213.637070 84.818077,216.359085 82.136513,217.507034 
	C78.734230,218.963531 75.184120,217.311478 73.166832,213.927505 
	C70.839874,210.024063 70.866554,205.851547 73.452812,202.146286 
	C76.051971,198.422546 79.811722,197.588730 84.402710,199.473526 
z"/>
<path fill="#213640" opacity="1.000000" stroke="none" 
	d="
M247.051788,212.546173 
	C243.727692,212.232269 243.764282,210.419296 244.600204,208.298019 
	C245.353348,206.386826 246.214783,204.518280 247.028442,202.630936 
	C247.500458,202.602890 247.972458,202.574844 248.444458,202.546799 
	C249.343353,205.368912 250.332764,208.170959 250.970642,211.050858 
	C251.022125,211.283340 248.659866,212.050446 247.051788,212.546173 
z"/>
<path fill="#687F86" opacity="1.000000" stroke="none" 
	d="
M166.552704,106.687897 
	C167.277924,108.373039 167.956665,110.261017 169.284210,111.032341 
	C171.391891,112.256935 174.054642,112.489456 176.264923,113.581985 
	C180.672440,115.760574 181.589172,120.360458 178.267624,123.851387 
	C175.809692,126.434647 172.959778,128.644928 170.483185,130.844879 
	C167.332428,127.330597 164.069794,123.691544 160.807144,120.052483 
	C161.123734,119.570412 161.440308,119.088341 161.756882,118.606262 
	C162.985168,119.084465 164.244537,119.496559 165.434601,120.056053 
	C167.307526,120.936600 169.113251,122.587944 170.986267,122.645348 
	C172.533356,122.692764 174.136673,120.905296 175.715073,119.930878 
	C174.547546,118.743858 173.568649,117.201340 172.166153,116.457222 
	C170.291016,115.462334 167.868164,115.442772 166.085831,114.345818 
	C164.268738,113.227470 161.845444,111.415947 161.683380,109.717468 
	C161.487045,107.660065 163.035568,105.129890 164.466232,103.303360 
	C166.140640,101.165642 168.501526,99.565636 170.741425,97.575249 
	C173.313049,100.567902 176.202652,103.930603 179.655014,107.948189 
	C174.380539,109.484116 171.254593,102.105667 166.552704,106.687897 
z"/>
</svg>